<svg width="60" height="60" viewBox="0 0 60 60" fill="none" xmlns="http://www.w3.org/2000/svg">
<g clip-path="url(#clip0_145_476)">
<path d="M29.4996 16C32.6241 15.9991 35.6522 17.0817 38.068 19.0632C40.4837 21.0448 42.1376 23.8027 42.7478 26.8671C43.358 29.9314 42.8867 33.1125 41.4143 35.8683C39.9419 38.6241 37.5595 40.7841 34.673 41.9802C31.7865 43.1762 28.5745 43.3344 25.5845 42.4276C22.5944 41.5209 20.0113 39.6054 18.2753 37.0076C16.5393 34.4098 15.7578 31.2903 16.0641 28.1809C16.3703 25.0714 17.7452 22.1644 19.9547 19.9551C21.2064 18.6992 22.6941 17.7032 24.3322 17.0244C25.9703 16.3457 27.7264 15.9975 29.4996 16ZM29.4139 32.2993L27.4473 37.7332C27.399 37.8693 27.3239 37.9945 27.2266 38.1012C27.1292 38.208 27.0116 38.2943 26.8804 38.355C26.6835 38.4473 26.4635 38.4791 26.2485 38.4463C26.0334 38.4135 25.8329 38.3176 25.6724 38.1708C25.5119 38.024 25.3987 37.8328 25.3469 37.6215C25.2952 37.4102 25.3074 37.1883 25.3819 36.9839L26.753 33.187C26.8618 32.9013 26.9478 32.6074 27.0101 32.3081C27.0655 32.0042 27.1051 31.6976 27.1287 31.3896C27.1815 30.8337 27.2188 30.2317 27.2474 29.6538C27.2759 29.0759 27.2957 28.5156 27.3111 28.052C27.3309 27.4741 27.1749 27.4368 26.7112 27.3269L26.6146 27.3049L22.6595 26.5601C22.5172 26.535 22.3813 26.4821 22.2596 26.4044C22.1378 26.3267 22.0325 26.2258 21.9498 26.1074C21.8269 25.9281 21.7599 25.7163 21.7575 25.4988C21.755 25.2814 21.8171 25.0682 21.9359 24.8861C22.0547 24.704 22.2249 24.5612 22.4249 24.4759C22.6249 24.3906 22.8457 24.3665 23.0594 24.4067L27.3089 25.2043C27.4781 25.2197 27.6429 25.2395 27.8165 25.2593C28.3394 25.3309 28.8663 25.3698 29.3941 25.3757C30.0511 25.3629 30.7069 25.3138 31.3585 25.2285C31.5562 25.2065 31.743 25.1824 31.9298 25.1648L35.9398 24.4133C36.2242 24.3543 36.5205 24.4104 36.7637 24.5693C36.8843 24.6509 36.9874 24.7556 37.0672 24.8774C37.1469 24.9991 37.2016 25.1355 37.2282 25.2786C37.2548 25.4217 37.2527 25.5687 37.222 25.711C37.1913 25.8533 37.1326 25.988 37.0494 26.1074C36.9678 26.2266 36.8635 26.3285 36.7424 26.4073C36.6214 26.4861 36.486 26.5402 36.3441 26.5666L32.512 27.2874C32.3846 27.3159 32.2703 27.3357 32.1693 27.3511C31.7694 27.4192 31.5716 27.4543 31.5958 28.0234C31.6133 28.4387 31.6639 28.9353 31.7298 29.4539C31.8067 30.0625 31.9078 30.7085 32.0132 31.2996C32.0814 31.6885 32.1451 32.0005 32.233 32.2993C32.3209 32.5981 32.4066 32.9036 32.5384 33.2705L33.8809 36.9839C33.9554 37.1883 33.9676 37.4102 33.9159 37.6215C33.8642 37.8328 33.7509 38.024 33.5904 38.1708C33.4299 38.3176 33.2294 38.4135 33.0144 38.4463C32.7993 38.4791 32.5794 38.4473 32.3824 38.355C32.2513 38.2943 32.1336 38.208 32.0362 38.1012C31.9389 37.9945 31.8638 37.8693 31.8155 37.7332L29.8424 32.3103L29.6226 31.9082L29.4029 32.2993H29.4139ZM29.4996 20.5395C29.9485 20.5392 30.3836 20.6945 30.7308 20.9789C31.0781 21.2634 31.3159 21.6595 31.4038 22.0997C31.4918 22.5399 31.4243 22.997 31.213 23.393C31.0017 23.7891 30.6596 24.0996 30.245 24.2717C29.8304 24.4438 29.369 24.4668 28.9393 24.3368C28.5097 24.2068 28.1384 23.9318 27.8887 23.5587C27.6391 23.1856 27.5265 22.7375 27.5703 22.2908C27.614 21.844 27.8113 21.4262 28.1285 21.1086C28.3082 20.928 28.5219 20.7848 28.7572 20.6871C28.9925 20.5894 29.2448 20.5393 29.4996 20.5395ZM37.4866 21.5129C35.6412 19.6613 33.2107 18.5069 30.6094 18.2466C28.0082 17.9862 25.3971 18.636 23.2213 20.0851C21.0454 21.5343 19.4394 23.6931 18.677 26.1937C17.9146 28.6943 18.0429 31.3819 19.0402 33.7985C20.0374 36.2151 21.8417 38.2111 24.1458 39.4463C26.4498 40.6816 29.1109 41.0796 31.6755 40.5725C34.2401 40.0655 36.5495 38.6848 38.2102 36.6658C39.8708 34.6467 40.7799 32.1143 40.7825 29.5C40.7858 28.0173 40.4964 26.5485 39.9308 25.1779C39.3652 23.8073 38.5346 22.5619 37.4866 21.5129Z" fill="black"/>
</g>
<defs>
<clipPath id="clip0_145_476">
<rect width="27" height="27" fill="white" transform="translate(16 16)"/>
</clipPath>
</defs>
</svg>
