<svg width="67" height="67" viewBox="0 0 67 67" fill="none" xmlns="http://www.w3.org/2000/svg">
<g clip-path="url(#clip0_107_3334)">
<path d="M31.3214 26.5483C27.7205 27.5132 25.5836 31.2145 26.5484 34.8154C27.5133 38.4163 31.2146 40.5532 34.8154 39.5883C38.4163 38.6235 40.5533 34.9222 39.5884 31.3213C38.6236 27.7204 34.9223 25.5835 31.3214 26.5483Z" stroke="black" stroke-width="4.5" stroke-linecap="round" stroke-linejoin="round"/>
<path d="M15.2382 30.8578C15.3519 30.1248 15.2434 29.3745 14.9266 28.7037C14.6099 28.033 14.0995 27.4725 13.4612 27.0945L13.2958 26.999C12.7835 26.7036 12.3345 26.3102 11.9743 25.8411C11.6142 25.372 11.3501 24.8366 11.197 24.2654C11.0439 23.6941 11.005 23.0983 11.0823 22.5121C11.1597 21.9258 11.3518 21.3605 11.6478 20.8485C11.9432 20.3362 12.3367 19.8871 12.8057 19.527C13.2748 19.1669 13.8103 18.9027 14.3815 18.7497C14.9527 18.5966 15.5485 18.5576 16.1348 18.635C16.7211 18.7123 17.2864 18.9045 17.7983 19.2005L17.9637 19.2959C18.6101 19.6597 19.3508 19.8215 20.09 19.7604C20.8293 19.6993 21.5333 19.4182 22.1113 18.9533C22.6803 18.5055 23.1059 17.9012 23.3359 17.2146C23.5658 16.5281 23.5899 15.7893 23.4053 15.0892L23.3063 14.7197C22.9974 13.5669 23.1591 12.3386 23.7559 11.305C24.3526 10.2715 25.3355 9.51726 26.4883 9.20837C27.6411 8.89948 28.8694 9.06118 29.903 9.65792C30.9366 10.2547 31.6907 11.2375 31.9996 12.3903L32.0521 12.5859C32.2616 13.3008 32.6814 13.9361 33.2568 14.4092C33.8323 14.8823 34.5367 15.1713 35.2786 15.2388C36.0116 15.3524 36.7619 15.2439 37.4327 14.9271C38.1034 14.6104 38.6639 14.1 39.0419 13.4617L39.1373 13.2963C39.4327 12.784 39.8262 12.335 40.2953 11.9749C40.7644 11.6147 41.2998 11.3506 41.871 11.1975C42.4422 11.0445 43.038 11.0055 43.6243 11.0828C44.2106 11.1602 44.7759 11.3523 45.2879 11.6483C45.8002 11.9437 46.2492 12.3372 46.6094 12.8063C46.9695 13.2753 47.2337 13.8108 47.3867 14.382C47.5398 14.9532 47.5787 15.549 47.5014 16.1353C47.424 16.7216 47.2319 17.2869 46.9359 17.7989L46.8404 17.9642C46.4767 18.6107 46.3149 19.3513 46.376 20.0905C46.437 20.8298 46.7182 21.5338 47.1831 22.1118C47.6308 22.6808 48.2352 23.1065 48.9217 23.3364C49.6083 23.5663 50.3471 23.5904 51.0472 23.4058L51.4167 23.3068C52.5695 22.9979 53.7978 23.1596 54.8313 23.7564C55.8649 24.3531 56.6191 25.336 56.928 26.4888C57.2369 27.6416 57.0752 28.8699 56.4785 29.9035C55.8817 30.9371 54.8988 31.6913 53.746 32.0002L53.5504 32.0526C52.8356 32.2621 52.2003 32.6819 51.7272 33.2574C51.2541 33.8328 50.965 34.5372 50.8976 35.2791C50.784 36.0121 50.8925 36.7624 51.2092 37.4332C51.526 38.1039 52.0364 38.6644 52.6747 39.0424L52.84 39.1379C53.3523 39.4333 53.8014 39.8267 54.1615 40.2958C54.5217 40.7649 54.7858 41.3003 54.9389 41.8715C55.0919 42.4428 55.1309 43.0385 55.0535 43.6248C54.9762 44.2111 54.784 44.7764 54.4881 45.2884C54.1927 45.8007 53.7992 46.2498 53.3301 46.6099C52.861 46.97 52.3256 47.2342 51.7544 47.3872C51.1832 47.5403 50.5874 47.5793 50.0011 47.5019C49.4148 47.4245 48.8495 47.2324 48.3375 46.9364L48.1722 46.841C47.5257 46.4772 46.7851 46.3154 46.0458 46.3765C45.3066 46.4375 44.6025 46.7187 44.0245 47.1836L43.8507 47.2302C43.2817 47.678 42.856 48.2823 42.6261 48.9688C42.3962 49.6554 42.3721 50.3942 42.5567 51.0943L42.6557 51.4638C42.9646 52.6166 42.8029 53.8449 42.2061 54.8784C41.6094 55.912 40.6265 56.6662 39.4737 56.9751C38.3209 57.284 37.0926 57.1223 36.059 56.5256C35.0254 55.9288 34.2712 54.9459 33.9624 53.7931L33.9099 53.5975C33.7198 52.8989 33.3295 52.2712 32.7871 51.7916C32.2447 51.3119 31.5739 51.0014 30.8573 50.8981C30.1242 50.7845 29.374 50.893 28.7032 51.2098C28.0324 51.5265 27.4719 52.0369 27.094 52.6752L26.9985 52.8405C26.7031 53.3528 26.3096 53.8019 25.8406 54.162C25.3715 54.5222 24.8361 54.7863 24.2648 54.9394C23.6936 55.0924 23.0978 55.1314 22.5115 55.0541C21.9253 54.9767 21.36 54.7845 20.848 54.4886C20.3357 54.1932 19.8866 53.7997 19.5265 53.3306C19.1664 52.8616 18.9022 52.3261 18.7491 51.7549C18.5961 51.1837 18.5571 50.5879 18.6345 50.0016C18.7118 49.4153 18.904 48.85 19.2 48.338L19.2954 48.1727C19.6592 47.5262 19.821 46.7856 19.7599 46.0464C19.6988 45.3071 19.4177 44.6031 18.9527 44.0251L18.9062 43.8512C18.4584 43.2822 17.8541 42.8566 17.1675 42.6267C16.481 42.3967 15.7422 42.3726 15.0421 42.5572L14.6726 42.6562C13.5198 42.9651 12.2915 42.8034 11.2579 42.2066C10.2244 41.6099 9.47016 40.627 9.16127 39.4742C8.85237 38.3214 9.01408 37.0931 9.61082 36.0595C10.2076 35.026 11.1904 34.2718 12.3432 33.9629L12.5388 33.9105C13.2374 33.7203 13.8652 33.33 14.3448 32.7876C14.8244 32.2452 15.135 31.5744 15.2382 30.8578Z" stroke="black" stroke-width="4.5" stroke-linecap="round" stroke-linejoin="round"/>
</g>
<defs>
<clipPath id="clip0_107_3334">
<rect width="54" height="54" fill="white" transform="translate(66.1362 52.1602) rotate(165)"/>
</clipPath>
</defs>
</svg>
